<?xml version="1.0" encoding="iso-8859-1"?>
<!-- Uploaded to: SVG Repo, www.svgrepo.com, Generator: SVG Repo Mixer Tools -->
<svg fill="#000000" height="800px" width="800px" version="1.1" id="Layer_1" xmlns="http://www.w3.org/2000/svg" xmlns:xlink="http://www.w3.org/1999/xlink" 
	 viewBox="0 0 512 512" xml:space="preserve">
<g>
	<g>
		<path d="M512,170.667c0-47.131-38.202-85.333-85.333-85.333C426.667,38.202,388.465,0,341.333,0H170.667
			c-47.131,0-85.333,38.202-85.333,85.333C38.202,85.333,0,123.535,0,170.667v42.667c0,21.635,8.065,41.375,21.333,56.415v156.918
			c0,47.131,38.202,85.333,85.333,85.333h298.667c47.131,0,85.333-38.202,85.333-85.333V269.748
			C503.935,254.708,512,234.968,512,213.333V170.667z M448,405.333H64V295.979c3.256,0.838,6.594,1.464,9.988,1.915
			c0.412,0.056,0.826,0.107,1.24,0.157c0.628,0.074,1.255,0.153,1.888,0.214c1.108,0.109,2.222,0.189,3.338,0.254
			c0.356,0.02,0.713,0.036,1.07,0.052c1.266,0.057,2.534,0.096,3.81,0.096h85.333V320c0,23.558,19.109,42.667,42.667,42.667h85.333
			c23.558,0,42.667-19.109,42.667-42.667v-21.333h85.333c1.275,0,2.544-0.039,3.81-0.096c0.357-0.016,0.714-0.032,1.07-0.052
			c1.117-0.065,2.231-0.145,3.338-0.254c0.632-0.06,1.259-0.14,1.887-0.214c0.414-0.05,0.828-0.101,1.24-0.158
			c3.394-0.451,6.732-1.077,9.988-1.915V405.333z M298.667,277.333V320h-85.333v-42.667v-42.667h85.333V277.333z M170.667,42.667
			h170.667c23.567,0,42.667,19.099,42.667,42.667H128C128,61.766,147.099,42.667,170.667,42.667z M42.667,170.667
			c0-23.567,19.099-42.667,42.667-42.667h21.333h298.667h21.333c23.567,0,42.667,19.099,42.667,42.667v42.667
			c0,11.669-4.687,22.237-12.275,29.94c-0.681,0.486-1.352,1.005-2,1.588c-6.961,6.267-15.408,10.086-24.444,10.951
			c-0.111,0.01-0.223,0.016-0.335,0.025c-0.524,0.046-1.049,0.086-1.577,0.112c-0.675,0.032-1.353,0.051-2.036,0.051h-85.333
			v-21.333c0-23.558-19.109-42.667-42.667-42.667h-85.333c-23.558,0-42.667,19.109-42.667,42.667V256H85.333
			c-0.683,0-1.361-0.02-2.036-0.051c-0.528-0.026-1.053-0.066-1.577-0.112c-0.111-0.009-0.224-0.015-0.335-0.025
			c-9.036-0.864-17.483-4.683-24.444-10.951c-0.648-0.583-1.319-1.102-2-1.588c-7.588-7.702-12.275-18.271-12.275-29.94V170.667z
			 M405.333,469.333H106.667c-15.795,0-29.584-8.579-36.96-21.333h372.587C434.917,460.754,421.129,469.333,405.333,469.333z"/>
	</g>
</g>
</svg>